<?xml version="1.0" standalone="no"?>
<!DOCTYPE svg PUBLIC "-//W3C//DTD SVG 20010904//EN"
 "http://www.w3.org/TR/2001/REC-SVG-20010904/DTD/svg10.dtd">
<svg version="1.0" xmlns="http://www.w3.org/2000/svg"
 width="261.000000pt" height="261.000000pt" viewBox="0 0 261.000000 261.000000"
 preserveAspectRatio="xMidYMid meet">
<metadata>
Created by potrace 1.11, written by Peter Selinger 2001-2013
</metadata>
<g transform="translate(0.000000,261.000000) scale(0.100000,-0.100000)"
fill="#000000" stroke="none">
<path d="M440 1320 l0 -560 45 0 45 0 0 260 0 260 260 0 260 0 0 40 0 40 -260
0 -260 0 0 215 0 215 298 2 297 3 3 43 3 42 -345 0 -346 0 0 -560z"/>
<path d="M1320 1320 l0 -560 50 0 50 0 2 470 3 471 315 -470 315 -470 48 -1
47 0 0 560 0 560 -45 0 -45 0 -2 -476 -3 -475 -320 475 -319 476 -48 0 -48 0
0 -560z"/>
</g>
</svg>
